HIERARCHY
ROOT Hips
{
	OFFSET 0.000000 0.000000 0.000000
	CHANNELS 6 Xposition Yposition Zposition Zrotation Yrotation Xrotation 
	JOINT LowerBack
	{
		OFFSET 0.000000 0.000000 0.000000
		CHANNELS 3 Zrotation Yrotation Xrotation
		JOINT Spine
		{
			OFFSET 0.028270 2.035590 -0.193380
			CHANNELS 3 Zrotation Yrotation Xrotation
			JOINT Spine1
			{
				OFFSET 0.056720 2.048850 -0.042750
				CHANNELS 3 Zrotation Yrotation Xrotation
				JOINT Neck
				{
					OFFSET 0.000000 0.000000 0.000000
					CHANNELS 3 Zrotation Yrotation Xrotation
					JOINT Neck1
					{
						OFFSET -0.054170 1.746240 0.172020
						CHANNELS 3 Zrotation Yrotation Xrotation
						JOINT Head
						{
							OFFSET 0.104070 1.761360 -0.123970
							CHANNELS 3 Zrotation Yrotation Xrotation
							End Site
							{
								OFFSET 0.000000 0.000000 0.000000
							}
						}
					}
				}
				JOINT LeftShoulder
				{
					OFFSET 0.000000 0.000000 0.000000
					CHANNELS 3 Zrotation Yrotation Xrotation
					JOINT LeftArm
					{
						OFFSET 3.362410 1.200890 -0.311210
						CHANNELS 3 Zrotation Yrotation Xrotation
						JOINT LeftForeArm
						{
							OFFSET 4.983000 -0.000000 -0.000000
							CHANNELS 3 Zrotation Yrotation Xrotation
							JOINT LeftHand
							{
								OFFSET 3.483560 -0.000000 -0.000000
								CHANNELS 3 Zrotation Yrotation Xrotation
								JOINT LeftFingerBase
								{
									OFFSET 0.000000 0.000000 0.000000
									CHANNELS 3 Zrotation Yrotation Xrotation
									JOINT LeftHandIndex1
									{
										OFFSET 0.715260 -0.000000 -0.000000
										CHANNELS 3 Zrotation Yrotation Xrotation
										End Site
										{
											OFFSET 0.000000 0.000000 0.000000
										}
									}
								}
								JOINT LThumb
								{
									OFFSET 0.000000 0.000000 0.000000
									CHANNELS 3 Zrotation Yrotation Xrotation
									End Site
									{
										OFFSET 0.000000 0.000000 0.000000
									}
								}
							}
						}
					}
				}
				JOINT RightShoulder
				{
					OFFSET 0.000000 0.000000 0.000000
					CHANNELS 3 Zrotation Yrotation Xrotation
					JOINT RightArm
					{
						OFFSET -3.136600 1.374050 -0.404650
						CHANNELS 3 Zrotation Yrotation Xrotation
						JOINT RightForeArm
						{
							OFFSET -5.241900 -0.000000 -0.000000
							CHANNELS 3 Zrotation Yrotation Xrotation
							JOINT RightHand
							{
								OFFSET -3.444170 -0.000000 -0.000000
								CHANNELS 3 Zrotation Yrotation Xrotation
								JOINT RightFingerBase
								{
									OFFSET 0.000000 0.000000 0.000000
									CHANNELS 3 Zrotation Yrotation Xrotation
									JOINT RightHandIndex1
									{
										OFFSET -0.622530 -0.000000 -0.000000
										CHANNELS 3 Zrotation Yrotation Xrotation
										End Site
										{
											OFFSET 0.000000 0.000000 0.000000
										}
									}
								}
								JOINT RThumb
								{
									OFFSET 0.000000 0.000000 0.000000
									CHANNELS 3 Zrotation Yrotation Xrotation
									End Site
									{
										OFFSET 0.000000 0.000000 0.000000
									}
								}
							}
						}
					}
				}
			}
		}
	}
}
MOTION
Frames: 7
Frame Time: 0.033333
-0.479429 9.602146 12.421158 178.837445 -15.223162 -152.628287 -4.702367 1.272262 2.482427 -0.668623 -0.736065 -3.394593 -9.643356 -0.463802 -0.417062 8.668784 -8.868859 -4.723336 -1.446271 -3.865273 -2.031497 -0.793619 1.364883 -1.203563 3.849909 9.642574 4.378018 -52.329599 20.023976 16.174103 -0.135230 -25.188552 -2.517891 -4.030124 2.472775 -1.284634 2.077302 1.534654 -1.061930 0.338829 4.119255 -0.636006 0.066475 -0.479384 0.798925 8.210897 -3.058969 -3.399141 63.533897 9.486210 17.394936 3.573784 53.880760 2.104690 -0.544553 8.683840 2.555321 -0.824024 -0.360727 -2.822923 -1.867688 1.271386 -3.174259 2.147911 1.213129 0.219198 
-0.483088 9.585977 12.288667 177.870629 -15.473225 -163.579729 -3.810237 -1.461174 2.298159 -3.349746 3.586238 -4.659564 -5.343108 -0.339572 -3.846570 8.342963 -6.784189 -9.649207 -3.980974 3.056625 1.079449 0.117724 -0.388394 0.275350 -1.745649 8.191942 2.209787 -52.446446 12.822041 7.714664 -2.988198 -29.495810 2.551039 -0.473382 0.736410 2.644268 -1.412855 -1.916273 -0.093386 -1.188941 -3.135845 0.825072 1.140214 -4.162992 -2.470767 14.670335 -3.819805 0.178238 59.134425 6.611123 16.856782 7.248182 57.049814 3.176426 1.421534 5.480252 -1.040017 -0.433010 -1.939744 1.295283 -3.808925 -1.068756 1.707647 -2.945295 2.282476 -1.436983 
-0.482260 9.584712 12.217694 -177.602336 -10.128011 -157.122187 -5.754229 1.970477 0.073839 0.258277 1.395917 -4.764117 -11.394145 4.625676 3.540189 6.415524 -6.296744 -9.182370 -4.893961 1.274929 -0.187714 0.139071 -2.852585 0.379551 -6.577631 6.719017 3.291493 -55.739480 14.098864 7.714395 -3.342526 -27.860629 -0.781177 -5.833658 0.810052 -1.415951 3.783352 -2.401363 1.713874 -3.353673 3.043155 0.726221 -0.919479 1.742719 3.216655 5.000676 -2.787741 -1.000688 64.149500 13.768996 14.929506 -1.515201 59.859655 -0.081634 2.641311 6.835463 1.702544 1.102046 -2.377853 0.599282 -0.269554 1.111799 1.742250 0.405025 3.673187 0.114602 
-0.514930 9.606829 12.086592 -178.507547 -12.901371 -159.892761 -9.063841 1.698816 2.450664 -0.887648 -1.914247 -4.072571 -9.184199 -2.188391 -0.225990 8.216629 -4.129073 -8.078603 -4.633023 -1.745336 3.298033 2.359217 -2.000599 0.148644 -0.110383 8.629210 -2.048646 -57.082876 18.583862 13.444441 -3.716089 -14.150205 2.992769 -1.311373 3.669564 1.000478 -0.780678 -0.393483 -2.089213 1.571811 -5.055710 -0.161658 -0.100049 2.376711 -0.699268 1.547770 -2.373158 -1.149626 62.603986 13.009926 20.905850 1.540715 62.117204 0.125123 -0.678735 6.381388 -1.370730 -2.346322 -0.123318 -2.706884 2.146999 -0.150925 1.064707 2.556964 -1.309913 0.944285 
-0.526356 9.644475 11.985190 174.715665 -19.359644 -154.920710 -9.748531 0.833065 -3.349978 -1.657346 1.773385 -1.284398 -7.477730 3.379734 -0.196598 10.885289 -10.681159 -8.976693 -5.352091 -0.975330 0.780349 1.878456 -1.341908 -2.074429 -0.699876 6.223577 5.157453 -59.687932 7.195349 8.780281 -7.528789 -23.720744 4.520047 2.587045 3.421504 0.103340 2.477725 -2.119873 2.090006 0.732543 -1.930750 -4.475788 -4.005948 0.862048 -0.113054 10.071821 -3.482195 0.757392 61.450997 12.852932 14.936740 0.567538 61.610005 -0.542556 3.162668 5.978503 1.953774 2.398638 2.017574 -0.571932 4.669893 4.450837 -2.808875 4.022479 -1.253564 2.139781 
-0.552836 9.662776 11.917259 176.876920 -15.713665 -156.607866 -7.545965 -1.755975 5.259400 -1.901690 3.304526 -4.221832 -10.283821 0.455449 0.287636 10.323720 -5.529586 -11.183803 -1.961280 -0.508485 2.571491 -2.030893 2.352476 -4.133750 1.569403 -0.284207 3.895584 -53.352084 13.472670 17.239422 -4.654634 -31.909350 2.000304 1.990265 2.762028 4.578850 -0.166210 -2.048004 -1.280009 0.984384 -2.157259 0.042948 -0.776096 0.204933 -0.295352 9.724799 -4.493447 2.963780 64.810706 7.013140 22.529370 0.641389 53.174341 -2.952807 -1.127526 9.510641 1.194196 -0.647142 -0.552771 -1.487362 -0.432549 0.884042 3.669008 -0.401197 3.570981 3.456615 
-0.547139 9.608420 11.843306 178.642710 -13.449641 -158.324896 -6.748994 -2.409752 -3.149312 -1.043773 -2.210323 -2.392054 -11.177831 -0.755573 -1.002122 10.070005 -10.198323 -5.717717 -3.906397 0.567914 -1.373332 0.210612 2.596187 4.060306 0.093494 6.466750 2.277105 -50.473877 14.535660 9.770968 -5.747001 -32.988141 -1.591468 -4.120788 0.528835 0.852038 -0.591060 -4.635970 2.274942 2.942639 0.196660 -2.155941 -4.083016 -0.078039 0.969589 6.748336 -1.018024 -4.583330 63.130731 12.170918 17.285036 -4.682939 57.396281 -5.477080 3.110235 3.723947 -3.316324 -0.276286 0.331954 1.378951 1.101538 -1.341462 -1.198179 0.852253 0.149972 -0.057707 
